<?xml version="1.0" encoding="utf-8"?>
<!-- Generator: Adobe Illustrator 26.5.0, SVG Export Plug-In . SVG Version: 6.00 Build 0)  -->
<svg version="1.1" id="Layer_1" xmlns="http://www.w3.org/2000/svg" xmlns:xlink="http://www.w3.org/1999/xlink" x="0px" y="0px"
	 viewBox="0 0 48 48" style="enable-background:new 0 0 48 48;" xml:space="preserve">
<style type="text/css">
	.st0{fill:#FFFFFF;}
</style>
<path class="st0" d="M14,42c-0.8,0-1.5-0.3-2.1-0.9C11.3,40.5,11,39.8,11,39V9c0-0.8,0.3-1.5,0.9-2.1C12.5,6.3,13.2,6,14,6h14l9,9v24
	c0,0.8-0.3,1.5-0.9,2.1c-0.6,0.6-1.3,0.9-2.1,0.9H14z M27,16V9H14v30h20V16H27z M19,35h10v-3H19V35z M19,28h10v-3H19V28z M19,21h10
	v-3H19V21z M14,9v7V9v30V9z"/>
</svg>
